<svg xmlns="http://www.w3.org/2000/svg" viewBox="0 0 160 48">
  <path fill="#FF9900" d="M47.5 22.1c-5.7 4.2-14 6.4-21.1 6.4-10 0-19-3.7-25.8-9.8-.5-.5-.1-1.1.6-.8 7.3 4.3 16.4 6.8 25.8 6.8 6.3 0 13.3-1.3 19.7-4 1-.4 1.8.6.8 1.4"/>
  <path fill="#FF9900" d="M49.5 19.8c-.7-.9-4.8-.4-6.7-.2-.6.1-.6-.4-.1-.8 3.3-2.3 8.6-1.6 9.2-.9.6.8-.2 6.1-3.2 8.7-.5.4-.9.2-.7-.3.7-1.7 2.2-5.6 1.5-6.5"/>
  <path fill="#000000" d="M45.1 13.5c0 .9 0 1.6-.4 2.4-1.2 2.5-3.8 3.8-6.4 3.8-3.7 0-5.9-2.8-5.9-7 0-4.9 2.6-7.3 6.5-7.3 3.3 0 5.3 1.4 6 4.3h-2c-.4-1.9-1.7-3-4-3-2.7 0-4.3 2-4.3 6 0 3.9 1.6 5.7 4.3 5.7 1.9 0 3.2-.9 3.7-2.8h2.5v-2.1h-2.9v-1.7l2.9.7z"/>
  <path fill="#000000" d="M54.3 11.8h-3.8V8.5h3.8v3.3zm-3.8.9h3.8v7.6h-3.8v-7.6z"/>
  <path fill="#000000" d="M62.5 15.7c0-1.5-.8-2.3-2.2-2.3-1.5 0-2.4.9-2.4 2.3v4.6h-2.1v-7.6h2v1.1c.6-.8 1.6-1.3 2.8-1.3 2.3 0 3.8 1.5 3.8 3.9v3.9h-2v-4.6z"/>
  <path fill="#000000" d="M71.4 20.5c-2.9 0-4.7-2-4.7-4.9 0-2.8 1.8-4.9 4.7-4.9s4.7 2 4.7 4.9c0 2.8-1.8 4.9-4.7 4.9zm0-1.8c1.5 0 2.5-1.2 2.5-3.1s-1-3.1-2.5-3.1-2.5 1.2-2.5 3.1 1 3.1 2.5 3.1z"/>
  <path fill="#000000" d="M84.2 20.3h-2v-1.1c-.6.8-1.6 1.3-2.8 1.3-2.3 0-3.8-1.5-3.8-3.9v-3.9h2.1v3.7c0 1.5.8 2.3 2.2 2.3 1.5 0 2.4-.9 2.4-2.3v-3.7h2v7.6z"/>
  <path fill="#000000" d="M91.5 20.5c-2.9 0-4.7-2-4.7-4.9 0-2.8 1.8-4.9 4.7-4.9s4.7 2 4.7 4.9c0 2.8-1.8 4.9-4.7 4.9zm0-1.8c1.5 0 2.5-1.2 2.5-3.1s-1-3.1-2.5-3.1-2.5 1.2-2.5 3.1 1 3.1 2.5 3.1z"/>
</svg>